<svg 
    xmlns="http://www.w3.org/2000/svg" 
    data-name="Layer 1" 
    width="717.67004" 
    height="596.3292" 
    viewBox="0 0 717.67004 596.3292" 
    xmlns:xlink="http://www.w3.org/1999/xlink"
>
    <rect 
        x="204.85476" 
        width="326" 
        height="594" 
        rx="58.72835" 
        fill="#3f3d56"
    />
    <path 
        d="M766.5202,210.56773v476.54a53.29169,53.29169,0,0,1-53.23,53.23h-208.54a53.29169,53.29169,0,0,1-53.23-53.23v-476.54a53.29173,53.29173,0,0,1,53.23-53.23h27.27v9.42a16.08092,16.08092,0,0,0,16.08,16.08h121.84a16.08092,16.08092,0,0,0,16.08-16.08v-9.42h27.27A53.29174,53.29174,0,0,1,766.5202,210.56773Z" 
        transform="translate(-241.16498 -151.8354)" 
        fill="#fff"
    />
    <!-- Ajout de l'image -->
    <image 
        href="URL_DE_L_IMAGE" 
        x="300" 
        y="150" 
        width="100" 
        height="150" 
        preserveAspectRatio="xMidYMid meet" 
    />
    <!-- Reste du code SVG -->
    <path d="M444.51974,272.33541a4.0046,4.0046,0,0,1-4-4v-8a4,4,0,0,1,8,0v8A4.00458,4.00458,0,0,1,444.51974,272.33541Z" transform="translate(-241.16498 -151.8354)" fill="#3f3d56"/>
    <!-- ... autres éléments ... -->
</svg>
